<mxfile host="Electron" modified="2025-01-11T22:01:27.816Z" agent="Mozilla/5.0 (Windows NT 10.0; Win64; x64) AppleWebKit/537.36 (KHTML, like Gecko) draw.io/24.4.0 Chrome/120.0.6099.109 Electron/28.1.0 Safari/537.36" etag="4geGMrmjG0vapQkCg7Ng" version="24.4.0" type="device">
  <diagram name="Page-1" id="w5YIbSZ3tDpKAlkPuJyY">
    <mxGraphModel dx="1071" dy="650" grid="1" gridSize="10" guides="1" tooltips="1" connect="1" arrows="1" fold="1" page="1" pageScale="1" pageWidth="1920" pageHeight="1200" background="#000000" math="0" shadow="0">
      <root>
        <mxCell id="0" />
        <mxCell id="1" parent="0" />
        <mxCell id="HTnMNNAMFDqcmNRor3eO-17" value="BOOK" style="shape=table;startSize=30;container=1;collapsible=0;childLayout=tableLayout;fixedRows=1;rowLines=0;fontStyle=1;fontSize=16;fillColor=#009999;" vertex="1" parent="1">
          <mxGeometry x="390" y="340" width="520" height="460" as="geometry" />
        </mxCell>
        <mxCell id="HTnMNNAMFDqcmNRor3eO-18" value="" style="shape=tableRow;horizontal=0;startSize=0;swimlaneHead=0;swimlaneBody=0;top=0;left=0;bottom=0;right=0;collapsible=0;dropTarget=0;fillColor=none;points=[[0,0.5],[1,0.5]];portConstraint=eastwest;strokeColor=inherit;fontSize=16;strokeWidth=3;" vertex="1" parent="HTnMNNAMFDqcmNRor3eO-17">
          <mxGeometry y="30" width="520" height="40" as="geometry" />
        </mxCell>
        <mxCell id="HTnMNNAMFDqcmNRor3eO-19" value="PK" style="shape=partialRectangle;html=1;whiteSpace=wrap;connectable=0;fillColor=none;top=0;left=0;bottom=0;right=0;overflow=hidden;pointerEvents=1;strokeColor=#E6D0DE;fontSize=16;" vertex="1" parent="HTnMNNAMFDqcmNRor3eO-18">
          <mxGeometry width="59" height="40" as="geometry">
            <mxRectangle width="59" height="40" as="alternateBounds" />
          </mxGeometry>
        </mxCell>
        <mxCell id="HTnMNNAMFDqcmNRor3eO-20" value="isbn&amp;nbsp; &amp;nbsp; &amp;nbsp; &amp;nbsp; &amp;nbsp; &amp;nbsp; &amp;nbsp; &amp;nbsp; &amp;nbsp; &amp;nbsp; &amp;nbsp; &amp;nbsp; &amp;nbsp; &amp;nbsp;varchar2(50)&amp;nbsp; &amp;nbsp; &amp;nbsp;&quot;978-3-596-148410-07&quot;" style="shape=partialRectangle;html=1;whiteSpace=wrap;connectable=0;fillColor=none;top=0;left=0;bottom=0;right=0;align=left;spacingLeft=6;overflow=hidden;strokeColor=#E6D0DE;fontSize=16;" vertex="1" parent="HTnMNNAMFDqcmNRor3eO-18">
          <mxGeometry x="59" width="461" height="40" as="geometry">
            <mxRectangle width="461" height="40" as="alternateBounds" />
          </mxGeometry>
        </mxCell>
        <mxCell id="HTnMNNAMFDqcmNRor3eO-24" value="" style="shape=tableRow;horizontal=0;startSize=0;swimlaneHead=0;swimlaneBody=0;top=0;left=0;bottom=0;right=0;collapsible=0;dropTarget=0;fillColor=none;points=[[0,0.5],[1,0.5]];portConstraint=eastwest;strokeColor=inherit;fontSize=16;" vertex="1" parent="HTnMNNAMFDqcmNRor3eO-17">
          <mxGeometry y="70" width="520" height="20" as="geometry" />
        </mxCell>
        <mxCell id="HTnMNNAMFDqcmNRor3eO-25" value="" style="shape=partialRectangle;html=1;whiteSpace=wrap;connectable=0;fillColor=none;top=0;left=0;bottom=0;right=0;overflow=hidden;strokeColor=inherit;fontSize=16;" vertex="1" parent="HTnMNNAMFDqcmNRor3eO-24">
          <mxGeometry width="59" height="20" as="geometry">
            <mxRectangle width="59" height="20" as="alternateBounds" />
          </mxGeometry>
        </mxCell>
        <mxCell id="HTnMNNAMFDqcmNRor3eO-26" value="title&amp;nbsp; &amp;nbsp; &amp;nbsp; &amp;nbsp; &amp;nbsp; &amp;nbsp; &amp;nbsp; &amp;nbsp; &amp;nbsp; &amp;nbsp; &amp;nbsp; &amp;nbsp; &amp;nbsp; &amp;nbsp; varchar2(50)&amp;nbsp; &amp;nbsp; &amp;nbsp; &quot;Mica sirena&quot;" style="shape=partialRectangle;html=1;whiteSpace=wrap;connectable=0;fillColor=none;top=0;left=0;bottom=0;right=0;align=left;spacingLeft=6;overflow=hidden;strokeColor=inherit;fontSize=16;" vertex="1" parent="HTnMNNAMFDqcmNRor3eO-24">
          <mxGeometry x="59" width="461" height="20" as="geometry">
            <mxRectangle width="461" height="20" as="alternateBounds" />
          </mxGeometry>
        </mxCell>
        <mxCell id="HTnMNNAMFDqcmNRor3eO-43" value="" style="shape=tableRow;horizontal=0;startSize=0;swimlaneHead=0;swimlaneBody=0;top=0;left=0;bottom=0;right=0;collapsible=0;dropTarget=0;fillColor=none;points=[[0,0.5],[1,0.5]];portConstraint=eastwest;strokeColor=inherit;fontSize=16;" vertex="1" parent="HTnMNNAMFDqcmNRor3eO-17">
          <mxGeometry y="90" width="520" height="30" as="geometry" />
        </mxCell>
        <mxCell id="HTnMNNAMFDqcmNRor3eO-44" value="" style="shape=partialRectangle;html=1;whiteSpace=wrap;connectable=0;fillColor=none;top=0;left=0;bottom=0;right=0;overflow=hidden;strokeColor=inherit;fontSize=16;" vertex="1" parent="HTnMNNAMFDqcmNRor3eO-43">
          <mxGeometry width="59" height="30" as="geometry">
            <mxRectangle width="59" height="30" as="alternateBounds" />
          </mxGeometry>
        </mxCell>
        <mxCell id="HTnMNNAMFDqcmNRor3eO-45" value="publication_date&amp;nbsp; &amp;nbsp; &amp;nbsp; &amp;nbsp;date&amp;nbsp; &amp;nbsp; &amp;nbsp; &amp;nbsp; &amp;nbsp; &amp;nbsp; &amp;nbsp; &amp;nbsp; &amp;nbsp; &amp;nbsp; &quot;2024-12-01&quot;" style="shape=partialRectangle;html=1;whiteSpace=wrap;connectable=0;fillColor=none;top=0;left=0;bottom=0;right=0;align=left;spacingLeft=6;overflow=hidden;strokeColor=inherit;fontSize=16;" vertex="1" parent="HTnMNNAMFDqcmNRor3eO-43">
          <mxGeometry x="59" width="461" height="30" as="geometry">
            <mxRectangle width="461" height="30" as="alternateBounds" />
          </mxGeometry>
        </mxCell>
        <mxCell id="HTnMNNAMFDqcmNRor3eO-57" value="" style="endArrow=none;html=1;rounded=0;strokeWidth=2;entryX=0.504;entryY=0.013;entryDx=0;entryDy=0;entryPerimeter=0;exitX=0.385;exitY=1;exitDx=0;exitDy=0;exitPerimeter=0;" edge="1" parent="HTnMNNAMFDqcmNRor3eO-17" source="HTnMNNAMFDqcmNRor3eO-91">
          <mxGeometry width="50" height="50" relative="1" as="geometry">
            <mxPoint x="200" y="500" as="sourcePoint" />
            <mxPoint x="204.48000000000002" y="30.519999999999982" as="targetPoint" />
          </mxGeometry>
        </mxCell>
        <mxCell id="HTnMNNAMFDqcmNRor3eO-56" value="" style="endArrow=none;html=1;rounded=0;strokeWidth=2;entryX=-0.002;entryY=-0.094;entryDx=0;entryDy=0;entryPerimeter=0;exitX=1.004;exitY=0.929;exitDx=0;exitDy=0;exitPerimeter=0;" edge="1" parent="HTnMNNAMFDqcmNRor3eO-17" source="HTnMNNAMFDqcmNRor3eO-18" target="HTnMNNAMFDqcmNRor3eO-24">
          <mxGeometry width="50" height="50" relative="1" as="geometry">
            <mxPoint x="130" y="240" as="sourcePoint" />
            <mxPoint y="89.57999999999998" as="targetPoint" />
          </mxGeometry>
        </mxCell>
        <mxCell id="HTnMNNAMFDqcmNRor3eO-58" value="" style="shape=tableRow;horizontal=0;startSize=0;swimlaneHead=0;swimlaneBody=0;top=0;left=0;bottom=0;right=0;collapsible=0;dropTarget=0;fillColor=none;points=[[0,0.5],[1,0.5]];portConstraint=eastwest;strokeColor=inherit;fontSize=16;" vertex="1" parent="HTnMNNAMFDqcmNRor3eO-17">
          <mxGeometry y="120" width="520" height="30" as="geometry" />
        </mxCell>
        <mxCell id="HTnMNNAMFDqcmNRor3eO-59" value="" style="shape=partialRectangle;html=1;whiteSpace=wrap;connectable=0;fillColor=none;top=0;left=0;bottom=0;right=0;overflow=hidden;strokeColor=inherit;fontSize=16;" vertex="1" parent="HTnMNNAMFDqcmNRor3eO-58">
          <mxGeometry width="59" height="30" as="geometry">
            <mxRectangle width="59" height="30" as="alternateBounds" />
          </mxGeometry>
        </mxCell>
        <mxCell id="HTnMNNAMFDqcmNRor3eO-60" value="edition&amp;nbsp; &amp;nbsp; &amp;nbsp; &amp;nbsp; &amp;nbsp; &amp;nbsp; &amp;nbsp; &amp;nbsp; &amp;nbsp; &amp;nbsp; &amp;nbsp; varchar2(50)&amp;nbsp; &amp;nbsp; &amp;nbsp; &amp;nbsp;&quot;Editia 3&quot;&amp;nbsp; &amp;nbsp; &amp;nbsp; &amp;nbsp; &amp;nbsp;" style="shape=partialRectangle;html=1;whiteSpace=wrap;connectable=0;fillColor=none;top=0;left=0;bottom=0;right=0;align=left;spacingLeft=6;overflow=hidden;strokeColor=inherit;fontSize=16;" vertex="1" parent="HTnMNNAMFDqcmNRor3eO-58">
          <mxGeometry x="59" width="461" height="30" as="geometry">
            <mxRectangle width="461" height="30" as="alternateBounds" />
          </mxGeometry>
        </mxCell>
        <mxCell id="HTnMNNAMFDqcmNRor3eO-61" value="" style="shape=tableRow;horizontal=0;startSize=0;swimlaneHead=0;swimlaneBody=0;top=0;left=0;bottom=0;right=0;collapsible=0;dropTarget=0;fillColor=none;points=[[0,0.5],[1,0.5]];portConstraint=eastwest;strokeColor=inherit;fontSize=16;" vertex="1" parent="HTnMNNAMFDqcmNRor3eO-17">
          <mxGeometry y="150" width="520" height="30" as="geometry" />
        </mxCell>
        <mxCell id="HTnMNNAMFDqcmNRor3eO-62" value="" style="shape=partialRectangle;html=1;whiteSpace=wrap;connectable=0;fillColor=none;top=0;left=0;bottom=0;right=0;overflow=hidden;strokeColor=inherit;fontSize=16;" vertex="1" parent="HTnMNNAMFDqcmNRor3eO-61">
          <mxGeometry width="59" height="30" as="geometry">
            <mxRectangle width="59" height="30" as="alternateBounds" />
          </mxGeometry>
        </mxCell>
        <mxCell id="HTnMNNAMFDqcmNRor3eO-63" value="available_quantity&amp;nbsp; &amp;nbsp; number(38,0)&amp;nbsp; &amp;nbsp; &amp;nbsp; 67 -596-52068-7" style="shape=partialRectangle;html=1;whiteSpace=wrap;connectable=0;fillColor=none;top=0;left=0;bottom=0;right=0;align=left;spacingLeft=6;overflow=hidden;strokeColor=inherit;fontSize=16;" vertex="1" parent="HTnMNNAMFDqcmNRor3eO-61">
          <mxGeometry x="59" width="461" height="30" as="geometry">
            <mxRectangle width="461" height="30" as="alternateBounds" />
          </mxGeometry>
        </mxCell>
        <mxCell id="HTnMNNAMFDqcmNRor3eO-64" value="" style="shape=tableRow;horizontal=0;startSize=0;swimlaneHead=0;swimlaneBody=0;top=0;left=0;bottom=0;right=0;collapsible=0;dropTarget=0;fillColor=none;points=[[0,0.5],[1,0.5]];portConstraint=eastwest;strokeColor=inherit;fontSize=16;" vertex="1" parent="HTnMNNAMFDqcmNRor3eO-17">
          <mxGeometry y="180" width="520" height="30" as="geometry" />
        </mxCell>
        <mxCell id="HTnMNNAMFDqcmNRor3eO-65" value="" style="shape=partialRectangle;html=1;whiteSpace=wrap;connectable=0;fillColor=none;top=0;left=0;bottom=0;right=0;overflow=hidden;strokeColor=inherit;fontSize=16;" vertex="1" parent="HTnMNNAMFDqcmNRor3eO-64">
          <mxGeometry width="59" height="30" as="geometry">
            <mxRectangle width="59" height="30" as="alternateBounds" />
          </mxGeometry>
        </mxCell>
        <mxCell id="HTnMNNAMFDqcmNRor3eO-66" value="price&amp;nbsp; &amp;nbsp; &amp;nbsp; &amp;nbsp; &amp;nbsp; &amp;nbsp; &amp;nbsp; &amp;nbsp; &amp;nbsp; &amp;nbsp; &amp;nbsp; &amp;nbsp; &amp;nbsp;number(38,2)&amp;nbsp; &amp;nbsp; &amp;nbsp; 547.50" style="shape=partialRectangle;html=1;whiteSpace=wrap;connectable=0;fillColor=none;top=0;left=0;bottom=0;right=0;align=left;spacingLeft=6;overflow=hidden;strokeColor=inherit;fontSize=16;" vertex="1" parent="HTnMNNAMFDqcmNRor3eO-64">
          <mxGeometry x="59" width="461" height="30" as="geometry">
            <mxRectangle width="461" height="30" as="alternateBounds" />
          </mxGeometry>
        </mxCell>
        <mxCell id="HTnMNNAMFDqcmNRor3eO-67" value="" style="shape=tableRow;horizontal=0;startSize=0;swimlaneHead=0;swimlaneBody=0;top=0;left=0;bottom=0;right=0;collapsible=0;dropTarget=0;fillColor=none;points=[[0,0.5],[1,0.5]];portConstraint=eastwest;strokeColor=inherit;fontSize=16;" vertex="1" parent="HTnMNNAMFDqcmNRor3eO-17">
          <mxGeometry y="210" width="520" height="30" as="geometry" />
        </mxCell>
        <mxCell id="HTnMNNAMFDqcmNRor3eO-68" value="" style="shape=partialRectangle;html=1;whiteSpace=wrap;connectable=0;fillColor=none;top=0;left=0;bottom=0;right=0;overflow=hidden;strokeColor=inherit;fontSize=16;" vertex="1" parent="HTnMNNAMFDqcmNRor3eO-67">
          <mxGeometry width="59" height="30" as="geometry">
            <mxRectangle width="59" height="30" as="alternateBounds" />
          </mxGeometry>
        </mxCell>
        <mxCell id="HTnMNNAMFDqcmNRor3eO-69" value="author&amp;nbsp; &amp;nbsp; &amp;nbsp; &amp;nbsp; &amp;nbsp; &amp;nbsp; &amp;nbsp; &amp;nbsp; &amp;nbsp; &amp;nbsp; &amp;nbsp; &amp;nbsp;varchar2(50)&amp;nbsp; &amp;nbsp; &amp;nbsp; &quot;Petre Ispirescu&quot;" style="shape=partialRectangle;html=1;whiteSpace=wrap;connectable=0;fillColor=none;top=0;left=0;bottom=0;right=0;align=left;spacingLeft=6;overflow=hidden;strokeColor=inherit;fontSize=16;" vertex="1" parent="HTnMNNAMFDqcmNRor3eO-67">
          <mxGeometry x="59" width="461" height="30" as="geometry">
            <mxRectangle width="461" height="30" as="alternateBounds" />
          </mxGeometry>
        </mxCell>
        <mxCell id="HTnMNNAMFDqcmNRor3eO-70" value="" style="shape=tableRow;horizontal=0;startSize=0;swimlaneHead=0;swimlaneBody=0;top=0;left=0;bottom=0;right=0;collapsible=0;dropTarget=0;fillColor=none;points=[[0,0.5],[1,0.5]];portConstraint=eastwest;strokeColor=inherit;fontSize=16;" vertex="1" parent="HTnMNNAMFDqcmNRor3eO-17">
          <mxGeometry y="240" width="520" height="30" as="geometry" />
        </mxCell>
        <mxCell id="HTnMNNAMFDqcmNRor3eO-71" value="" style="shape=partialRectangle;html=1;whiteSpace=wrap;connectable=0;fillColor=none;top=0;left=0;bottom=0;right=0;overflow=hidden;strokeColor=inherit;fontSize=16;" vertex="1" parent="HTnMNNAMFDqcmNRor3eO-70">
          <mxGeometry width="59" height="30" as="geometry">
            <mxRectangle width="59" height="30" as="alternateBounds" />
          </mxGeometry>
        </mxCell>
        <mxCell id="HTnMNNAMFDqcmNRor3eO-72" value="publisher&amp;nbsp; &amp;nbsp; &amp;nbsp; &amp;nbsp; &amp;nbsp; &amp;nbsp; &amp;nbsp; &amp;nbsp; &amp;nbsp; &amp;nbsp;varchar2(50)&amp;nbsp; &amp;nbsp; &amp;nbsp; &quot;Editura Arthur&quot;" style="shape=partialRectangle;html=1;whiteSpace=wrap;connectable=0;fillColor=none;top=0;left=0;bottom=0;right=0;align=left;spacingLeft=6;overflow=hidden;strokeColor=inherit;fontSize=16;" vertex="1" parent="HTnMNNAMFDqcmNRor3eO-70">
          <mxGeometry x="59" width="461" height="30" as="geometry">
            <mxRectangle width="461" height="30" as="alternateBounds" />
          </mxGeometry>
        </mxCell>
        <mxCell id="HTnMNNAMFDqcmNRor3eO-73" value="" style="shape=tableRow;horizontal=0;startSize=0;swimlaneHead=0;swimlaneBody=0;top=0;left=0;bottom=0;right=0;collapsible=0;dropTarget=0;fillColor=none;points=[[0,0.5],[1,0.5]];portConstraint=eastwest;strokeColor=inherit;fontSize=16;" vertex="1" parent="HTnMNNAMFDqcmNRor3eO-17">
          <mxGeometry y="270" width="520" height="30" as="geometry" />
        </mxCell>
        <mxCell id="HTnMNNAMFDqcmNRor3eO-74" value="" style="shape=partialRectangle;html=1;whiteSpace=wrap;connectable=0;fillColor=none;top=0;left=0;bottom=0;right=0;overflow=hidden;strokeColor=inherit;fontSize=16;" vertex="1" parent="HTnMNNAMFDqcmNRor3eO-73">
          <mxGeometry width="59" height="30" as="geometry">
            <mxRectangle width="59" height="30" as="alternateBounds" />
          </mxGeometry>
        </mxCell>
        <mxCell id="HTnMNNAMFDqcmNRor3eO-75" value="language&amp;nbsp; &amp;nbsp; &amp;nbsp; &amp;nbsp; &amp;nbsp; &amp;nbsp; &amp;nbsp; &amp;nbsp; &amp;nbsp; &amp;nbsp;varchar2(50)&amp;nbsp; &amp;nbsp; &amp;nbsp; &quot;romana&quot;&amp;nbsp;" style="shape=partialRectangle;html=1;whiteSpace=wrap;connectable=0;fillColor=none;top=0;left=0;bottom=0;right=0;align=left;spacingLeft=6;overflow=hidden;strokeColor=inherit;fontSize=16;" vertex="1" parent="HTnMNNAMFDqcmNRor3eO-73">
          <mxGeometry x="59" width="461" height="30" as="geometry">
            <mxRectangle width="461" height="30" as="alternateBounds" />
          </mxGeometry>
        </mxCell>
        <mxCell id="HTnMNNAMFDqcmNRor3eO-76" value="" style="shape=tableRow;horizontal=0;startSize=0;swimlaneHead=0;swimlaneBody=0;top=0;left=0;bottom=0;right=0;collapsible=0;dropTarget=0;fillColor=none;points=[[0,0.5],[1,0.5]];portConstraint=eastwest;strokeColor=inherit;fontSize=16;" vertex="1" parent="HTnMNNAMFDqcmNRor3eO-17">
          <mxGeometry y="300" width="520" height="30" as="geometry" />
        </mxCell>
        <mxCell id="HTnMNNAMFDqcmNRor3eO-77" value="" style="shape=partialRectangle;html=1;whiteSpace=wrap;connectable=0;fillColor=none;top=0;left=0;bottom=0;right=0;overflow=hidden;strokeColor=inherit;fontSize=16;" vertex="1" parent="HTnMNNAMFDqcmNRor3eO-76">
          <mxGeometry width="59" height="30" as="geometry">
            <mxRectangle width="59" height="30" as="alternateBounds" />
          </mxGeometry>
        </mxCell>
        <mxCell id="HTnMNNAMFDqcmNRor3eO-78" value="genre&amp;nbsp; &amp;nbsp; &amp;nbsp; &amp;nbsp; &amp;nbsp; &amp;nbsp; &amp;nbsp; &amp;nbsp; &amp;nbsp; &amp;nbsp; &amp;nbsp; &amp;nbsp; &amp;nbsp;varchar2(50)&amp;nbsp; &amp;nbsp; &amp;nbsp;&quot;fantastic&quot;" style="shape=partialRectangle;html=1;whiteSpace=wrap;connectable=0;fillColor=none;top=0;left=0;bottom=0;right=0;align=left;spacingLeft=6;overflow=hidden;strokeColor=inherit;fontSize=16;" vertex="1" parent="HTnMNNAMFDqcmNRor3eO-76">
          <mxGeometry x="59" width="461" height="30" as="geometry">
            <mxRectangle width="461" height="30" as="alternateBounds" />
          </mxGeometry>
        </mxCell>
        <mxCell id="HTnMNNAMFDqcmNRor3eO-79" value="" style="shape=tableRow;horizontal=0;startSize=0;swimlaneHead=0;swimlaneBody=0;top=0;left=0;bottom=0;right=0;collapsible=0;dropTarget=0;fillColor=none;points=[[0,0.5],[1,0.5]];portConstraint=eastwest;strokeColor=inherit;fontSize=16;" vertex="1" parent="HTnMNNAMFDqcmNRor3eO-17">
          <mxGeometry y="330" width="520" height="30" as="geometry" />
        </mxCell>
        <mxCell id="HTnMNNAMFDqcmNRor3eO-80" value="" style="shape=partialRectangle;html=1;whiteSpace=wrap;connectable=0;fillColor=none;top=0;left=0;bottom=0;right=0;overflow=hidden;strokeColor=inherit;fontSize=16;" vertex="1" parent="HTnMNNAMFDqcmNRor3eO-79">
          <mxGeometry width="59" height="30" as="geometry">
            <mxRectangle width="59" height="30" as="alternateBounds" />
          </mxGeometry>
        </mxCell>
        <mxCell id="HTnMNNAMFDqcmNRor3eO-81" value="rating&amp;nbsp; &amp;nbsp; &amp;nbsp; &amp;nbsp; &amp;nbsp; &amp;nbsp; &amp;nbsp; &amp;nbsp; &amp;nbsp; &amp;nbsp; &amp;nbsp; &amp;nbsp; &amp;nbsp;number(38,1)&amp;nbsp; &amp;nbsp; &amp;nbsp;5.7" style="shape=partialRectangle;html=1;whiteSpace=wrap;connectable=0;fillColor=none;top=0;left=0;bottom=0;right=0;align=left;spacingLeft=6;overflow=hidden;strokeColor=inherit;fontSize=16;" vertex="1" parent="HTnMNNAMFDqcmNRor3eO-79">
          <mxGeometry x="59" width="461" height="30" as="geometry">
            <mxRectangle width="461" height="30" as="alternateBounds" />
          </mxGeometry>
        </mxCell>
        <mxCell id="HTnMNNAMFDqcmNRor3eO-82" value="" style="shape=tableRow;horizontal=0;startSize=0;swimlaneHead=0;swimlaneBody=0;top=0;left=0;bottom=0;right=0;collapsible=0;dropTarget=0;fillColor=none;points=[[0,0.5],[1,0.5]];portConstraint=eastwest;strokeColor=inherit;fontSize=16;" vertex="1" parent="HTnMNNAMFDqcmNRor3eO-17">
          <mxGeometry y="360" width="520" height="20" as="geometry" />
        </mxCell>
        <mxCell id="HTnMNNAMFDqcmNRor3eO-83" value="" style="shape=partialRectangle;html=1;whiteSpace=wrap;connectable=0;fillColor=none;top=0;left=0;bottom=0;right=0;overflow=hidden;strokeColor=inherit;fontSize=16;" vertex="1" parent="HTnMNNAMFDqcmNRor3eO-82">
          <mxGeometry width="59" height="20" as="geometry">
            <mxRectangle width="59" height="20" as="alternateBounds" />
          </mxGeometry>
        </mxCell>
        <mxCell id="HTnMNNAMFDqcmNRor3eO-84" value="data_adaugarii&amp;nbsp; &amp;nbsp; &amp;nbsp; &amp;nbsp; &amp;nbsp; date&amp;nbsp; &amp;nbsp; &amp;nbsp; &amp;nbsp; &amp;nbsp; &amp;nbsp; &amp;nbsp; &amp;nbsp; &amp;nbsp; &amp;nbsp;&quot;2024-12-02&quot;" style="shape=partialRectangle;html=1;whiteSpace=wrap;connectable=0;fillColor=none;top=0;left=0;bottom=0;right=0;align=left;spacingLeft=6;overflow=hidden;strokeColor=inherit;fontSize=16;" vertex="1" parent="HTnMNNAMFDqcmNRor3eO-82">
          <mxGeometry x="59" width="461" height="20" as="geometry">
            <mxRectangle width="461" height="20" as="alternateBounds" />
          </mxGeometry>
        </mxCell>
        <mxCell id="HTnMNNAMFDqcmNRor3eO-85" value="" style="shape=tableRow;horizontal=0;startSize=0;swimlaneHead=0;swimlaneBody=0;top=0;left=0;bottom=0;right=0;collapsible=0;dropTarget=0;fillColor=none;points=[[0,0.5],[1,0.5]];portConstraint=eastwest;strokeColor=inherit;fontSize=16;" vertex="1" parent="HTnMNNAMFDqcmNRor3eO-17">
          <mxGeometry y="380" width="520" height="30" as="geometry" />
        </mxCell>
        <mxCell id="HTnMNNAMFDqcmNRor3eO-86" value="" style="shape=partialRectangle;html=1;whiteSpace=wrap;connectable=0;fillColor=none;top=0;left=0;bottom=0;right=0;overflow=hidden;strokeColor=inherit;fontSize=16;" vertex="1" parent="HTnMNNAMFDqcmNRor3eO-85">
          <mxGeometry width="59" height="30" as="geometry">
            <mxRectangle width="59" height="30" as="alternateBounds" />
          </mxGeometry>
        </mxCell>
        <mxCell id="HTnMNNAMFDqcmNRor3eO-87" value="page_num&amp;nbsp; &amp;nbsp; &amp;nbsp; &amp;nbsp; &amp;nbsp; &amp;nbsp; &amp;nbsp; &amp;nbsp; &amp;nbsp;number(38,0)&amp;nbsp; &amp;nbsp; 345" style="shape=partialRectangle;html=1;whiteSpace=wrap;connectable=0;fillColor=none;top=0;left=0;bottom=0;right=0;align=left;spacingLeft=6;overflow=hidden;strokeColor=inherit;fontSize=16;" vertex="1" parent="HTnMNNAMFDqcmNRor3eO-85">
          <mxGeometry x="59" width="461" height="30" as="geometry">
            <mxRectangle width="461" height="30" as="alternateBounds" />
          </mxGeometry>
        </mxCell>
        <mxCell id="HTnMNNAMFDqcmNRor3eO-88" value="" style="shape=tableRow;horizontal=0;startSize=0;swimlaneHead=0;swimlaneBody=0;top=0;left=0;bottom=0;right=0;collapsible=0;dropTarget=0;fillColor=none;points=[[0,0.5],[1,0.5]];portConstraint=eastwest;strokeColor=inherit;fontSize=16;" vertex="1" parent="HTnMNNAMFDqcmNRor3eO-17">
          <mxGeometry y="410" width="520" height="20" as="geometry" />
        </mxCell>
        <mxCell id="HTnMNNAMFDqcmNRor3eO-89" value="" style="shape=partialRectangle;html=1;whiteSpace=wrap;connectable=0;fillColor=none;top=0;left=0;bottom=0;right=0;overflow=hidden;strokeColor=inherit;fontSize=16;" vertex="1" parent="HTnMNNAMFDqcmNRor3eO-88">
          <mxGeometry width="59" height="20" as="geometry">
            <mxRectangle width="59" height="20" as="alternateBounds" />
          </mxGeometry>
        </mxCell>
        <mxCell id="HTnMNNAMFDqcmNRor3eO-90" value="ultima_actualizare&amp;nbsp; &amp;nbsp; number(38,0)&amp;nbsp; &amp;nbsp; &amp;nbsp;&quot;2024-12-03&quot;" style="shape=partialRectangle;html=1;whiteSpace=wrap;connectable=0;fillColor=none;top=0;left=0;bottom=0;right=0;align=left;spacingLeft=6;overflow=hidden;strokeColor=inherit;fontSize=16;" vertex="1" parent="HTnMNNAMFDqcmNRor3eO-88">
          <mxGeometry x="59" width="461" height="20" as="geometry">
            <mxRectangle width="461" height="20" as="alternateBounds" />
          </mxGeometry>
        </mxCell>
        <mxCell id="HTnMNNAMFDqcmNRor3eO-91" value="" style="shape=tableRow;horizontal=0;startSize=0;swimlaneHead=0;swimlaneBody=0;top=0;left=0;bottom=0;right=0;collapsible=0;dropTarget=0;fillColor=none;points=[[0,0.5],[1,0.5]];portConstraint=eastwest;strokeColor=inherit;fontSize=16;" vertex="1" parent="HTnMNNAMFDqcmNRor3eO-17">
          <mxGeometry y="430" width="520" height="30" as="geometry" />
        </mxCell>
        <mxCell id="HTnMNNAMFDqcmNRor3eO-92" value="" style="shape=partialRectangle;html=1;whiteSpace=wrap;connectable=0;fillColor=none;top=0;left=0;bottom=0;right=0;overflow=hidden;strokeColor=inherit;fontSize=16;" vertex="1" parent="HTnMNNAMFDqcmNRor3eO-91">
          <mxGeometry width="59" height="30" as="geometry">
            <mxRectangle width="59" height="30" as="alternateBounds" />
          </mxGeometry>
        </mxCell>
        <mxCell id="HTnMNNAMFDqcmNRor3eO-93" value="status&amp;nbsp; &amp;nbsp; &amp;nbsp; &amp;nbsp; &amp;nbsp; &amp;nbsp; &amp;nbsp; &amp;nbsp; &amp;nbsp; &amp;nbsp; &amp;nbsp; &amp;nbsp; number(38,0)&amp;nbsp; &amp;nbsp; &amp;nbsp;&quot;In Stoc&quot;" style="shape=partialRectangle;html=1;whiteSpace=wrap;connectable=0;fillColor=none;top=0;left=0;bottom=0;right=0;align=left;spacingLeft=6;overflow=hidden;strokeColor=inherit;fontSize=16;" vertex="1" parent="HTnMNNAMFDqcmNRor3eO-91">
          <mxGeometry x="59" width="461" height="30" as="geometry">
            <mxRectangle width="461" height="30" as="alternateBounds" />
          </mxGeometry>
        </mxCell>
        <mxCell id="HTnMNNAMFDqcmNRor3eO-94" value="" style="endArrow=none;html=1;rounded=0;strokeWidth=2;entryX=0.635;entryY=-0.025;entryDx=0;entryDy=0;entryPerimeter=0;exitX=0.619;exitY=1;exitDx=0;exitDy=0;exitPerimeter=0;" edge="1" parent="HTnMNNAMFDqcmNRor3eO-17" source="HTnMNNAMFDqcmNRor3eO-91">
          <mxGeometry width="50" height="50" relative="1" as="geometry">
            <mxPoint x="317.70000000000005" y="461.99" as="sourcePoint" />
            <mxPoint x="320.1500000000001" y="30" as="targetPoint" />
          </mxGeometry>
        </mxCell>
        <mxCell id="HTnMNNAMFDqcmNRor3eO-96" value="CARTE" style="shape=table;startSize=30;container=1;collapsible=0;childLayout=tableLayout;fixedRows=1;rowLines=0;fontStyle=1;fontSize=16;fillColor=#009999;" vertex="1" parent="1">
          <mxGeometry x="1050" y="590" width="490" height="460" as="geometry" />
        </mxCell>
        <mxCell id="HTnMNNAMFDqcmNRor3eO-97" value="" style="shape=tableRow;horizontal=0;startSize=0;swimlaneHead=0;swimlaneBody=0;top=0;left=0;bottom=0;right=0;collapsible=0;dropTarget=0;fillColor=none;points=[[0,0.5],[1,0.5]];portConstraint=eastwest;strokeColor=inherit;fontSize=16;strokeWidth=3;" vertex="1" parent="HTnMNNAMFDqcmNRor3eO-96">
          <mxGeometry y="30" width="490" height="40" as="geometry" />
        </mxCell>
        <mxCell id="HTnMNNAMFDqcmNRor3eO-98" value="PK" style="shape=partialRectangle;html=1;whiteSpace=wrap;connectable=0;fillColor=none;top=0;left=0;bottom=0;right=0;overflow=hidden;pointerEvents=1;strokeColor=#E6D0DE;fontSize=16;" vertex="1" parent="HTnMNNAMFDqcmNRor3eO-97">
          <mxGeometry width="56" height="40" as="geometry">
            <mxRectangle width="56" height="40" as="alternateBounds" />
          </mxGeometry>
        </mxCell>
        <mxCell id="HTnMNNAMFDqcmNRor3eO-99" value="isbn&amp;nbsp; &amp;nbsp; &amp;nbsp; &amp;nbsp; &amp;nbsp; &amp;nbsp; &amp;nbsp; &amp;nbsp; &amp;nbsp; &amp;nbsp; &amp;nbsp; &amp;nbsp; &amp;nbsp; &amp;nbsp;varchar2(50)&amp;nbsp; &amp;nbsp; &amp;nbsp; &quot;978-3-16-148410-0&quot;" style="shape=partialRectangle;html=1;whiteSpace=wrap;connectable=0;fillColor=none;top=0;left=0;bottom=0;right=0;align=left;spacingLeft=6;overflow=hidden;strokeColor=#E6D0DE;fontSize=16;" vertex="1" parent="HTnMNNAMFDqcmNRor3eO-97">
          <mxGeometry x="56" width="434" height="40" as="geometry">
            <mxRectangle width="434" height="40" as="alternateBounds" />
          </mxGeometry>
        </mxCell>
        <mxCell id="HTnMNNAMFDqcmNRor3eO-100" value="" style="shape=tableRow;horizontal=0;startSize=0;swimlaneHead=0;swimlaneBody=0;top=0;left=0;bottom=0;right=0;collapsible=0;dropTarget=0;fillColor=none;points=[[0,0.5],[1,0.5]];portConstraint=eastwest;strokeColor=inherit;fontSize=16;" vertex="1" parent="HTnMNNAMFDqcmNRor3eO-96">
          <mxGeometry y="70" width="490" height="20" as="geometry" />
        </mxCell>
        <mxCell id="HTnMNNAMFDqcmNRor3eO-101" value="" style="shape=partialRectangle;html=1;whiteSpace=wrap;connectable=0;fillColor=none;top=0;left=0;bottom=0;right=0;overflow=hidden;strokeColor=inherit;fontSize=16;" vertex="1" parent="HTnMNNAMFDqcmNRor3eO-100">
          <mxGeometry width="56" height="20" as="geometry">
            <mxRectangle width="56" height="20" as="alternateBounds" />
          </mxGeometry>
        </mxCell>
        <mxCell id="HTnMNNAMFDqcmNRor3eO-102" value="title&amp;nbsp; &amp;nbsp; &amp;nbsp; &amp;nbsp; &amp;nbsp; &amp;nbsp; &amp;nbsp; &amp;nbsp; &amp;nbsp; &amp;nbsp; &amp;nbsp; &amp;nbsp; &amp;nbsp; &amp;nbsp; varchar2(50)&amp;nbsp; &amp;nbsp; &amp;nbsp; &quot;Mica sirena&quot;" style="shape=partialRectangle;html=1;whiteSpace=wrap;connectable=0;fillColor=none;top=0;left=0;bottom=0;right=0;align=left;spacingLeft=6;overflow=hidden;strokeColor=inherit;fontSize=16;" vertex="1" parent="HTnMNNAMFDqcmNRor3eO-100">
          <mxGeometry x="56" width="434" height="20" as="geometry">
            <mxRectangle width="434" height="20" as="alternateBounds" />
          </mxGeometry>
        </mxCell>
        <mxCell id="HTnMNNAMFDqcmNRor3eO-103" value="" style="shape=tableRow;horizontal=0;startSize=0;swimlaneHead=0;swimlaneBody=0;top=0;left=0;bottom=0;right=0;collapsible=0;dropTarget=0;fillColor=none;points=[[0,0.5],[1,0.5]];portConstraint=eastwest;strokeColor=inherit;fontSize=16;" vertex="1" parent="HTnMNNAMFDqcmNRor3eO-96">
          <mxGeometry y="90" width="490" height="30" as="geometry" />
        </mxCell>
        <mxCell id="HTnMNNAMFDqcmNRor3eO-104" value="" style="shape=partialRectangle;html=1;whiteSpace=wrap;connectable=0;fillColor=none;top=0;left=0;bottom=0;right=0;overflow=hidden;strokeColor=inherit;fontSize=16;" vertex="1" parent="HTnMNNAMFDqcmNRor3eO-103">
          <mxGeometry width="56" height="30" as="geometry">
            <mxRectangle width="56" height="30" as="alternateBounds" />
          </mxGeometry>
        </mxCell>
        <mxCell id="HTnMNNAMFDqcmNRor3eO-105" value="publication_date&amp;nbsp; &amp;nbsp; &amp;nbsp; &amp;nbsp;date&amp;nbsp; &amp;nbsp; &amp;nbsp; &amp;nbsp; &amp;nbsp; &amp;nbsp; &amp;nbsp; &amp;nbsp; &amp;nbsp; &amp;nbsp; &quot;2024-12-01&quot;" style="shape=partialRectangle;html=1;whiteSpace=wrap;connectable=0;fillColor=none;top=0;left=0;bottom=0;right=0;align=left;spacingLeft=6;overflow=hidden;strokeColor=inherit;fontSize=16;" vertex="1" parent="HTnMNNAMFDqcmNRor3eO-103">
          <mxGeometry x="56" width="434" height="30" as="geometry">
            <mxRectangle width="434" height="30" as="alternateBounds" />
          </mxGeometry>
        </mxCell>
        <mxCell id="HTnMNNAMFDqcmNRor3eO-106" value="" style="endArrow=none;html=1;rounded=0;strokeWidth=2;entryX=0.504;entryY=0.013;entryDx=0;entryDy=0;entryPerimeter=0;exitX=0.396;exitY=0.933;exitDx=0;exitDy=0;exitPerimeter=0;" edge="1" parent="HTnMNNAMFDqcmNRor3eO-96" source="HTnMNNAMFDqcmNRor3eO-141">
          <mxGeometry width="50" height="50" relative="1" as="geometry">
            <mxPoint x="630" y="80" as="sourcePoint" />
            <mxPoint x="204.48000000000002" y="30.519999999999982" as="targetPoint" />
          </mxGeometry>
        </mxCell>
        <mxCell id="HTnMNNAMFDqcmNRor3eO-107" value="" style="endArrow=none;html=1;rounded=0;strokeWidth=2;entryX=-0.002;entryY=-0.094;entryDx=0;entryDy=0;entryPerimeter=0;exitX=1.004;exitY=0.929;exitDx=0;exitDy=0;exitPerimeter=0;" edge="1" parent="HTnMNNAMFDqcmNRor3eO-96" source="HTnMNNAMFDqcmNRor3eO-97" target="HTnMNNAMFDqcmNRor3eO-100">
          <mxGeometry width="50" height="50" relative="1" as="geometry">
            <mxPoint x="130" y="240" as="sourcePoint" />
            <mxPoint y="89.57999999999998" as="targetPoint" />
          </mxGeometry>
        </mxCell>
        <mxCell id="HTnMNNAMFDqcmNRor3eO-108" value="" style="shape=tableRow;horizontal=0;startSize=0;swimlaneHead=0;swimlaneBody=0;top=0;left=0;bottom=0;right=0;collapsible=0;dropTarget=0;fillColor=none;points=[[0,0.5],[1,0.5]];portConstraint=eastwest;strokeColor=inherit;fontSize=16;" vertex="1" parent="HTnMNNAMFDqcmNRor3eO-96">
          <mxGeometry y="120" width="490" height="30" as="geometry" />
        </mxCell>
        <mxCell id="HTnMNNAMFDqcmNRor3eO-109" value="" style="shape=partialRectangle;html=1;whiteSpace=wrap;connectable=0;fillColor=none;top=0;left=0;bottom=0;right=0;overflow=hidden;strokeColor=inherit;fontSize=16;" vertex="1" parent="HTnMNNAMFDqcmNRor3eO-108">
          <mxGeometry width="56" height="30" as="geometry">
            <mxRectangle width="56" height="30" as="alternateBounds" />
          </mxGeometry>
        </mxCell>
        <mxCell id="HTnMNNAMFDqcmNRor3eO-110" value="edition&amp;nbsp; &amp;nbsp; &amp;nbsp; &amp;nbsp; &amp;nbsp; &amp;nbsp; &amp;nbsp; &amp;nbsp; &amp;nbsp; &amp;nbsp; &amp;nbsp; varchar2(50)&amp;nbsp; &amp;nbsp; &amp;nbsp; &amp;nbsp;&quot;Editia 3&quot;&amp;nbsp; &amp;nbsp; &amp;nbsp; &amp;nbsp; &amp;nbsp;" style="shape=partialRectangle;html=1;whiteSpace=wrap;connectable=0;fillColor=none;top=0;left=0;bottom=0;right=0;align=left;spacingLeft=6;overflow=hidden;strokeColor=inherit;fontSize=16;" vertex="1" parent="HTnMNNAMFDqcmNRor3eO-108">
          <mxGeometry x="56" width="434" height="30" as="geometry">
            <mxRectangle width="434" height="30" as="alternateBounds" />
          </mxGeometry>
        </mxCell>
        <mxCell id="HTnMNNAMFDqcmNRor3eO-111" value="" style="shape=tableRow;horizontal=0;startSize=0;swimlaneHead=0;swimlaneBody=0;top=0;left=0;bottom=0;right=0;collapsible=0;dropTarget=0;fillColor=none;points=[[0,0.5],[1,0.5]];portConstraint=eastwest;strokeColor=inherit;fontSize=16;" vertex="1" parent="HTnMNNAMFDqcmNRor3eO-96">
          <mxGeometry y="150" width="490" height="30" as="geometry" />
        </mxCell>
        <mxCell id="HTnMNNAMFDqcmNRor3eO-112" value="" style="shape=partialRectangle;html=1;whiteSpace=wrap;connectable=0;fillColor=none;top=0;left=0;bottom=0;right=0;overflow=hidden;strokeColor=inherit;fontSize=16;" vertex="1" parent="HTnMNNAMFDqcmNRor3eO-111">
          <mxGeometry width="56" height="30" as="geometry">
            <mxRectangle width="56" height="30" as="alternateBounds" />
          </mxGeometry>
        </mxCell>
        <mxCell id="HTnMNNAMFDqcmNRor3eO-113" value="available_quantity&amp;nbsp; &amp;nbsp; number(38,0)&amp;nbsp; &amp;nbsp; &amp;nbsp; 67" style="shape=partialRectangle;html=1;whiteSpace=wrap;connectable=0;fillColor=none;top=0;left=0;bottom=0;right=0;align=left;spacingLeft=6;overflow=hidden;strokeColor=inherit;fontSize=16;" vertex="1" parent="HTnMNNAMFDqcmNRor3eO-111">
          <mxGeometry x="56" width="434" height="30" as="geometry">
            <mxRectangle width="434" height="30" as="alternateBounds" />
          </mxGeometry>
        </mxCell>
        <mxCell id="HTnMNNAMFDqcmNRor3eO-114" value="" style="shape=tableRow;horizontal=0;startSize=0;swimlaneHead=0;swimlaneBody=0;top=0;left=0;bottom=0;right=0;collapsible=0;dropTarget=0;fillColor=none;points=[[0,0.5],[1,0.5]];portConstraint=eastwest;strokeColor=inherit;fontSize=16;" vertex="1" parent="HTnMNNAMFDqcmNRor3eO-96">
          <mxGeometry y="180" width="490" height="30" as="geometry" />
        </mxCell>
        <mxCell id="HTnMNNAMFDqcmNRor3eO-115" value="" style="shape=partialRectangle;html=1;whiteSpace=wrap;connectable=0;fillColor=none;top=0;left=0;bottom=0;right=0;overflow=hidden;strokeColor=inherit;fontSize=16;" vertex="1" parent="HTnMNNAMFDqcmNRor3eO-114">
          <mxGeometry width="56" height="30" as="geometry">
            <mxRectangle width="56" height="30" as="alternateBounds" />
          </mxGeometry>
        </mxCell>
        <mxCell id="HTnMNNAMFDqcmNRor3eO-116" value="price&amp;nbsp; &amp;nbsp; &amp;nbsp; &amp;nbsp; &amp;nbsp; &amp;nbsp; &amp;nbsp; &amp;nbsp; &amp;nbsp; &amp;nbsp; &amp;nbsp; &amp;nbsp; &amp;nbsp;number(38,2)&amp;nbsp; &amp;nbsp; &amp;nbsp; 547.50" style="shape=partialRectangle;html=1;whiteSpace=wrap;connectable=0;fillColor=none;top=0;left=0;bottom=0;right=0;align=left;spacingLeft=6;overflow=hidden;strokeColor=inherit;fontSize=16;" vertex="1" parent="HTnMNNAMFDqcmNRor3eO-114">
          <mxGeometry x="56" width="434" height="30" as="geometry">
            <mxRectangle width="434" height="30" as="alternateBounds" />
          </mxGeometry>
        </mxCell>
        <mxCell id="HTnMNNAMFDqcmNRor3eO-117" value="" style="shape=tableRow;horizontal=0;startSize=0;swimlaneHead=0;swimlaneBody=0;top=0;left=0;bottom=0;right=0;collapsible=0;dropTarget=0;fillColor=none;points=[[0,0.5],[1,0.5]];portConstraint=eastwest;strokeColor=inherit;fontSize=16;" vertex="1" parent="HTnMNNAMFDqcmNRor3eO-96">
          <mxGeometry y="210" width="490" height="30" as="geometry" />
        </mxCell>
        <mxCell id="HTnMNNAMFDqcmNRor3eO-118" value="" style="shape=partialRectangle;html=1;whiteSpace=wrap;connectable=0;fillColor=none;top=0;left=0;bottom=0;right=0;overflow=hidden;strokeColor=inherit;fontSize=16;" vertex="1" parent="HTnMNNAMFDqcmNRor3eO-117">
          <mxGeometry width="56" height="30" as="geometry">
            <mxRectangle width="56" height="30" as="alternateBounds" />
          </mxGeometry>
        </mxCell>
        <mxCell id="HTnMNNAMFDqcmNRor3eO-119" value="author&amp;nbsp; &amp;nbsp; &amp;nbsp; &amp;nbsp; &amp;nbsp; &amp;nbsp; &amp;nbsp; &amp;nbsp; &amp;nbsp; &amp;nbsp; &amp;nbsp; &amp;nbsp;varchar2(50)&amp;nbsp; &amp;nbsp; &amp;nbsp; &quot;Petre Ispirescu&quot;" style="shape=partialRectangle;html=1;whiteSpace=wrap;connectable=0;fillColor=none;top=0;left=0;bottom=0;right=0;align=left;spacingLeft=6;overflow=hidden;strokeColor=inherit;fontSize=16;" vertex="1" parent="HTnMNNAMFDqcmNRor3eO-117">
          <mxGeometry x="56" width="434" height="30" as="geometry">
            <mxRectangle width="434" height="30" as="alternateBounds" />
          </mxGeometry>
        </mxCell>
        <mxCell id="HTnMNNAMFDqcmNRor3eO-120" value="" style="shape=tableRow;horizontal=0;startSize=0;swimlaneHead=0;swimlaneBody=0;top=0;left=0;bottom=0;right=0;collapsible=0;dropTarget=0;fillColor=none;points=[[0,0.5],[1,0.5]];portConstraint=eastwest;strokeColor=inherit;fontSize=16;" vertex="1" parent="HTnMNNAMFDqcmNRor3eO-96">
          <mxGeometry y="240" width="490" height="30" as="geometry" />
        </mxCell>
        <mxCell id="HTnMNNAMFDqcmNRor3eO-121" value="" style="shape=partialRectangle;html=1;whiteSpace=wrap;connectable=0;fillColor=none;top=0;left=0;bottom=0;right=0;overflow=hidden;strokeColor=inherit;fontSize=16;" vertex="1" parent="HTnMNNAMFDqcmNRor3eO-120">
          <mxGeometry width="56" height="30" as="geometry">
            <mxRectangle width="56" height="30" as="alternateBounds" />
          </mxGeometry>
        </mxCell>
        <mxCell id="HTnMNNAMFDqcmNRor3eO-122" value="publisher&amp;nbsp; &amp;nbsp; &amp;nbsp; &amp;nbsp; &amp;nbsp; &amp;nbsp; &amp;nbsp; &amp;nbsp; &amp;nbsp; &amp;nbsp;varchar2(50)&amp;nbsp; &amp;nbsp; &amp;nbsp; &quot;Editura Arthur&quot;" style="shape=partialRectangle;html=1;whiteSpace=wrap;connectable=0;fillColor=none;top=0;left=0;bottom=0;right=0;align=left;spacingLeft=6;overflow=hidden;strokeColor=inherit;fontSize=16;" vertex="1" parent="HTnMNNAMFDqcmNRor3eO-120">
          <mxGeometry x="56" width="434" height="30" as="geometry">
            <mxRectangle width="434" height="30" as="alternateBounds" />
          </mxGeometry>
        </mxCell>
        <mxCell id="HTnMNNAMFDqcmNRor3eO-123" value="" style="shape=tableRow;horizontal=0;startSize=0;swimlaneHead=0;swimlaneBody=0;top=0;left=0;bottom=0;right=0;collapsible=0;dropTarget=0;fillColor=none;points=[[0,0.5],[1,0.5]];portConstraint=eastwest;strokeColor=inherit;fontSize=16;" vertex="1" parent="HTnMNNAMFDqcmNRor3eO-96">
          <mxGeometry y="270" width="490" height="30" as="geometry" />
        </mxCell>
        <mxCell id="HTnMNNAMFDqcmNRor3eO-124" value="" style="shape=partialRectangle;html=1;whiteSpace=wrap;connectable=0;fillColor=none;top=0;left=0;bottom=0;right=0;overflow=hidden;strokeColor=inherit;fontSize=16;" vertex="1" parent="HTnMNNAMFDqcmNRor3eO-123">
          <mxGeometry width="56" height="30" as="geometry">
            <mxRectangle width="56" height="30" as="alternateBounds" />
          </mxGeometry>
        </mxCell>
        <mxCell id="HTnMNNAMFDqcmNRor3eO-125" value="language&amp;nbsp; &amp;nbsp; &amp;nbsp; &amp;nbsp; &amp;nbsp; &amp;nbsp; &amp;nbsp; &amp;nbsp; &amp;nbsp; &amp;nbsp;varchar2(50)&amp;nbsp; &amp;nbsp; &amp;nbsp; &quot;romana&quot;&amp;nbsp;" style="shape=partialRectangle;html=1;whiteSpace=wrap;connectable=0;fillColor=none;top=0;left=0;bottom=0;right=0;align=left;spacingLeft=6;overflow=hidden;strokeColor=inherit;fontSize=16;" vertex="1" parent="HTnMNNAMFDqcmNRor3eO-123">
          <mxGeometry x="56" width="434" height="30" as="geometry">
            <mxRectangle width="434" height="30" as="alternateBounds" />
          </mxGeometry>
        </mxCell>
        <mxCell id="HTnMNNAMFDqcmNRor3eO-126" value="" style="shape=tableRow;horizontal=0;startSize=0;swimlaneHead=0;swimlaneBody=0;top=0;left=0;bottom=0;right=0;collapsible=0;dropTarget=0;fillColor=none;points=[[0,0.5],[1,0.5]];portConstraint=eastwest;strokeColor=inherit;fontSize=16;" vertex="1" parent="HTnMNNAMFDqcmNRor3eO-96">
          <mxGeometry y="300" width="490" height="30" as="geometry" />
        </mxCell>
        <mxCell id="HTnMNNAMFDqcmNRor3eO-127" value="" style="shape=partialRectangle;html=1;whiteSpace=wrap;connectable=0;fillColor=none;top=0;left=0;bottom=0;right=0;overflow=hidden;strokeColor=inherit;fontSize=16;" vertex="1" parent="HTnMNNAMFDqcmNRor3eO-126">
          <mxGeometry width="56" height="30" as="geometry">
            <mxRectangle width="56" height="30" as="alternateBounds" />
          </mxGeometry>
        </mxCell>
        <mxCell id="HTnMNNAMFDqcmNRor3eO-128" value="genre&amp;nbsp; &amp;nbsp; &amp;nbsp; &amp;nbsp; &amp;nbsp; &amp;nbsp; &amp;nbsp; &amp;nbsp; &amp;nbsp; &amp;nbsp; &amp;nbsp; &amp;nbsp; &amp;nbsp;varchar2(50)&amp;nbsp; &amp;nbsp; &amp;nbsp;&quot;fantastic&quot;" style="shape=partialRectangle;html=1;whiteSpace=wrap;connectable=0;fillColor=none;top=0;left=0;bottom=0;right=0;align=left;spacingLeft=6;overflow=hidden;strokeColor=inherit;fontSize=16;" vertex="1" parent="HTnMNNAMFDqcmNRor3eO-126">
          <mxGeometry x="56" width="434" height="30" as="geometry">
            <mxRectangle width="434" height="30" as="alternateBounds" />
          </mxGeometry>
        </mxCell>
        <mxCell id="HTnMNNAMFDqcmNRor3eO-129" value="" style="shape=tableRow;horizontal=0;startSize=0;swimlaneHead=0;swimlaneBody=0;top=0;left=0;bottom=0;right=0;collapsible=0;dropTarget=0;fillColor=none;points=[[0,0.5],[1,0.5]];portConstraint=eastwest;strokeColor=inherit;fontSize=16;" vertex="1" parent="HTnMNNAMFDqcmNRor3eO-96">
          <mxGeometry y="330" width="490" height="30" as="geometry" />
        </mxCell>
        <mxCell id="HTnMNNAMFDqcmNRor3eO-130" value="" style="shape=partialRectangle;html=1;whiteSpace=wrap;connectable=0;fillColor=none;top=0;left=0;bottom=0;right=0;overflow=hidden;strokeColor=inherit;fontSize=16;" vertex="1" parent="HTnMNNAMFDqcmNRor3eO-129">
          <mxGeometry width="56" height="30" as="geometry">
            <mxRectangle width="56" height="30" as="alternateBounds" />
          </mxGeometry>
        </mxCell>
        <mxCell id="HTnMNNAMFDqcmNRor3eO-131" value="rating&amp;nbsp; &amp;nbsp; &amp;nbsp; &amp;nbsp; &amp;nbsp; &amp;nbsp; &amp;nbsp; &amp;nbsp; &amp;nbsp; &amp;nbsp; &amp;nbsp; &amp;nbsp; &amp;nbsp;number(38,1)&amp;nbsp; &amp;nbsp; &amp;nbsp;5.7" style="shape=partialRectangle;html=1;whiteSpace=wrap;connectable=0;fillColor=none;top=0;left=0;bottom=0;right=0;align=left;spacingLeft=6;overflow=hidden;strokeColor=inherit;fontSize=16;" vertex="1" parent="HTnMNNAMFDqcmNRor3eO-129">
          <mxGeometry x="56" width="434" height="30" as="geometry">
            <mxRectangle width="434" height="30" as="alternateBounds" />
          </mxGeometry>
        </mxCell>
        <mxCell id="HTnMNNAMFDqcmNRor3eO-132" value="" style="shape=tableRow;horizontal=0;startSize=0;swimlaneHead=0;swimlaneBody=0;top=0;left=0;bottom=0;right=0;collapsible=0;dropTarget=0;fillColor=none;points=[[0,0.5],[1,0.5]];portConstraint=eastwest;strokeColor=inherit;fontSize=16;" vertex="1" parent="HTnMNNAMFDqcmNRor3eO-96">
          <mxGeometry y="360" width="490" height="20" as="geometry" />
        </mxCell>
        <mxCell id="HTnMNNAMFDqcmNRor3eO-133" value="" style="shape=partialRectangle;html=1;whiteSpace=wrap;connectable=0;fillColor=none;top=0;left=0;bottom=0;right=0;overflow=hidden;strokeColor=inherit;fontSize=16;" vertex="1" parent="HTnMNNAMFDqcmNRor3eO-132">
          <mxGeometry width="56" height="20" as="geometry">
            <mxRectangle width="56" height="20" as="alternateBounds" />
          </mxGeometry>
        </mxCell>
        <mxCell id="HTnMNNAMFDqcmNRor3eO-134" value="data_adaugarii&amp;nbsp; &amp;nbsp; &amp;nbsp; &amp;nbsp; &amp;nbsp; date&amp;nbsp; &amp;nbsp; &amp;nbsp; &amp;nbsp; &amp;nbsp; &amp;nbsp; &amp;nbsp; &amp;nbsp; &amp;nbsp; &amp;nbsp;&quot;2024-12-02&quot;" style="shape=partialRectangle;html=1;whiteSpace=wrap;connectable=0;fillColor=none;top=0;left=0;bottom=0;right=0;align=left;spacingLeft=6;overflow=hidden;strokeColor=inherit;fontSize=16;" vertex="1" parent="HTnMNNAMFDqcmNRor3eO-132">
          <mxGeometry x="56" width="434" height="20" as="geometry">
            <mxRectangle width="434" height="20" as="alternateBounds" />
          </mxGeometry>
        </mxCell>
        <mxCell id="HTnMNNAMFDqcmNRor3eO-135" value="" style="shape=tableRow;horizontal=0;startSize=0;swimlaneHead=0;swimlaneBody=0;top=0;left=0;bottom=0;right=0;collapsible=0;dropTarget=0;fillColor=none;points=[[0,0.5],[1,0.5]];portConstraint=eastwest;strokeColor=inherit;fontSize=16;" vertex="1" parent="HTnMNNAMFDqcmNRor3eO-96">
          <mxGeometry y="380" width="490" height="30" as="geometry" />
        </mxCell>
        <mxCell id="HTnMNNAMFDqcmNRor3eO-136" value="" style="shape=partialRectangle;html=1;whiteSpace=wrap;connectable=0;fillColor=none;top=0;left=0;bottom=0;right=0;overflow=hidden;strokeColor=inherit;fontSize=16;" vertex="1" parent="HTnMNNAMFDqcmNRor3eO-135">
          <mxGeometry width="56" height="30" as="geometry">
            <mxRectangle width="56" height="30" as="alternateBounds" />
          </mxGeometry>
        </mxCell>
        <mxCell id="HTnMNNAMFDqcmNRor3eO-137" value="page_num&amp;nbsp; &amp;nbsp; &amp;nbsp; &amp;nbsp; &amp;nbsp; &amp;nbsp; &amp;nbsp; &amp;nbsp; &amp;nbsp;number(38,0)&amp;nbsp; &amp;nbsp; 345" style="shape=partialRectangle;html=1;whiteSpace=wrap;connectable=0;fillColor=none;top=0;left=0;bottom=0;right=0;align=left;spacingLeft=6;overflow=hidden;strokeColor=inherit;fontSize=16;" vertex="1" parent="HTnMNNAMFDqcmNRor3eO-135">
          <mxGeometry x="56" width="434" height="30" as="geometry">
            <mxRectangle width="434" height="30" as="alternateBounds" />
          </mxGeometry>
        </mxCell>
        <mxCell id="HTnMNNAMFDqcmNRor3eO-138" value="" style="shape=tableRow;horizontal=0;startSize=0;swimlaneHead=0;swimlaneBody=0;top=0;left=0;bottom=0;right=0;collapsible=0;dropTarget=0;fillColor=none;points=[[0,0.5],[1,0.5]];portConstraint=eastwest;strokeColor=inherit;fontSize=16;" vertex="1" parent="HTnMNNAMFDqcmNRor3eO-96">
          <mxGeometry y="410" width="490" height="20" as="geometry" />
        </mxCell>
        <mxCell id="HTnMNNAMFDqcmNRor3eO-139" value="" style="shape=partialRectangle;html=1;whiteSpace=wrap;connectable=0;fillColor=none;top=0;left=0;bottom=0;right=0;overflow=hidden;strokeColor=inherit;fontSize=16;" vertex="1" parent="HTnMNNAMFDqcmNRor3eO-138">
          <mxGeometry width="56" height="20" as="geometry">
            <mxRectangle width="56" height="20" as="alternateBounds" />
          </mxGeometry>
        </mxCell>
        <mxCell id="HTnMNNAMFDqcmNRor3eO-140" value="ultima_actualizare&amp;nbsp; &amp;nbsp; number(38,0)&amp;nbsp; &amp;nbsp; &amp;nbsp;&quot;2024-12-03&quot;" style="shape=partialRectangle;html=1;whiteSpace=wrap;connectable=0;fillColor=none;top=0;left=0;bottom=0;right=0;align=left;spacingLeft=6;overflow=hidden;strokeColor=inherit;fontSize=16;" vertex="1" parent="HTnMNNAMFDqcmNRor3eO-138">
          <mxGeometry x="56" width="434" height="20" as="geometry">
            <mxRectangle width="434" height="20" as="alternateBounds" />
          </mxGeometry>
        </mxCell>
        <mxCell id="HTnMNNAMFDqcmNRor3eO-141" value="" style="shape=tableRow;horizontal=0;startSize=0;swimlaneHead=0;swimlaneBody=0;top=0;left=0;bottom=0;right=0;collapsible=0;dropTarget=0;fillColor=none;points=[[0,0.5],[1,0.5]];portConstraint=eastwest;strokeColor=inherit;fontSize=16;" vertex="1" parent="HTnMNNAMFDqcmNRor3eO-96">
          <mxGeometry y="430" width="490" height="30" as="geometry" />
        </mxCell>
        <mxCell id="HTnMNNAMFDqcmNRor3eO-142" value="" style="shape=partialRectangle;html=1;whiteSpace=wrap;connectable=0;fillColor=none;top=0;left=0;bottom=0;right=0;overflow=hidden;strokeColor=inherit;fontSize=16;" vertex="1" parent="HTnMNNAMFDqcmNRor3eO-141">
          <mxGeometry width="56" height="30" as="geometry">
            <mxRectangle width="56" height="30" as="alternateBounds" />
          </mxGeometry>
        </mxCell>
        <mxCell id="HTnMNNAMFDqcmNRor3eO-143" value="status&amp;nbsp; &amp;nbsp; &amp;nbsp; &amp;nbsp; &amp;nbsp; &amp;nbsp; &amp;nbsp; &amp;nbsp; &amp;nbsp; &amp;nbsp; &amp;nbsp; &amp;nbsp; number(38,0)&amp;nbsp; &amp;nbsp; &amp;nbsp;&quot;In Stoc&quot;" style="shape=partialRectangle;html=1;whiteSpace=wrap;connectable=0;fillColor=none;top=0;left=0;bottom=0;right=0;align=left;spacingLeft=6;overflow=hidden;strokeColor=inherit;fontSize=16;" vertex="1" parent="HTnMNNAMFDqcmNRor3eO-141">
          <mxGeometry x="56" width="434" height="30" as="geometry">
            <mxRectangle width="434" height="30" as="alternateBounds" />
          </mxGeometry>
        </mxCell>
        <mxCell id="HTnMNNAMFDqcmNRor3eO-144" value="" style="endArrow=none;html=1;rounded=0;strokeWidth=2;entryX=0.635;entryY=-0.025;entryDx=0;entryDy=0;entryPerimeter=0;exitX=0.63;exitY=1.033;exitDx=0;exitDy=0;exitPerimeter=0;" edge="1" parent="HTnMNNAMFDqcmNRor3eO-96">
          <mxGeometry width="50" height="50" relative="1" as="geometry">
            <mxPoint x="317.70000000000005" y="461.99" as="sourcePoint" />
            <mxPoint x="320.1500000000001" y="30" as="targetPoint" />
          </mxGeometry>
        </mxCell>
        <mxCell id="HTnMNNAMFDqcmNRor3eO-146" value="" style="edgeStyle=entityRelationEdgeStyle;fontSize=12;html=1;endArrow=ERoneToMany;startArrow=none;rounded=0;entryX=0;entryY=0.5;entryDx=0;entryDy=0;strokeWidth=4;endSize=14;startSize=9;targetPerimeterSpacing=5;sourcePerimeterSpacing=5;startFill=0;" edge="1" parent="1" target="HTnMNNAMFDqcmNRor3eO-120">
          <mxGeometry width="100" height="100" relative="1" as="geometry">
            <mxPoint x="980" y="490" as="sourcePoint" />
            <mxPoint x="1030" y="740" as="targetPoint" />
          </mxGeometry>
        </mxCell>
      </root>
    </mxGraphModel>
  </diagram>
</mxfile>
